# xmcd
# 
# Track frame offsets:
#     150
#     20687
#     46255
#     69367
#     90870
#     124282
# 
# Disc length: 2475
# 
# Revision: 15
# Processed by: cddbd v1.5.2PL0 Copyright (c) Steve Scherf et al.
# Submitted via: fre:ac v1.0.31
# 
DISCID=4409a906
DTITLE=Cream - Live Cream Volume II
DYEAR=1972
DGENRE=Rock/Pop
TTITLE0=Deserted Cities Of The Heart
TTITLE1=White Room
TTITLE2=Politician
TTITLE3=Tales Of Brave Ulysses
TTITLE4=Sunshine Of Your Love
TTITLE5=Steppin' Out
EXTD=YEAR: 1972
EXTT0=
EXTT1=
EXTT2=
EXTT3=
EXTT4=
EXTT5=
PLAYORDER=
